<?xml version="1.0" encoding="UTF-8" standalone="no"?>
<!DOCTYPE svg PUBLIC "-//W3C//DTD SVG 1.1//EN" "http://www.w3.org/Graphics/SVG/1.1/DTD/svg11.dtd">
<svg width="100%" height="100%" viewBox="0 0 3000 3000" version="1.1" xmlns="http://www.w3.org/2000/svg" xmlns:xlink="http://www.w3.org/1999/xlink" xml:space="preserve" xmlns:serif="http://www.serif.com/" style="fill-rule:evenodd;clip-rule:evenodd;stroke-linecap:round;stroke-linejoin:round;stroke-miterlimit:1.5;">
    <g transform="matrix(0.849944,0,0,0.826091,148.608,304.057)">
        <g transform="matrix(1.12228,0,0,1.15467,-101.633,-293.312)">
            <circle cx="1507.3" cy="1507.81" r="1446.15" style="fill:white;"/>
        </g>
        <g transform="matrix(1.17655,2.32936e-17,0,1.21052,182.673,54.4343)">
            <g>
                <g transform="matrix(0.698947,-0.715174,0.715174,0.698947,-262.653,457.896)">
                    <g transform="matrix(375,0,0,375,412.557,540.924)">
                        <path d="M0.071,-0.571C0.071,-0.585 0.072,-0.599 0.073,-0.612C0.075,-0.626 0.078,-0.638 0.083,-0.648C0.088,-0.659 0.095,-0.667 0.105,-0.674C0.115,-0.68 0.128,-0.684 0.146,-0.684C0.162,-0.684 0.176,-0.68 0.186,-0.674C0.196,-0.667 0.203,-0.659 0.208,-0.648C0.213,-0.638 0.216,-0.626 0.218,-0.612C0.219,-0.599 0.22,-0.585 0.22,-0.571L0.22,-0.418L0.354,-0.418L0.354,-0.571C0.354,-0.585 0.354,-0.599 0.355,-0.612C0.357,-0.626 0.36,-0.638 0.365,-0.648C0.37,-0.659 0.377,-0.667 0.387,-0.674C0.397,-0.68 0.41,-0.684 0.428,-0.684C0.445,-0.684 0.458,-0.68 0.468,-0.674C0.478,-0.667 0.485,-0.659 0.49,-0.648C0.496,-0.638 0.499,-0.626 0.5,-0.612C0.501,-0.599 0.502,-0.585 0.502,-0.571L0.502,-0.112C0.502,-0.098 0.501,-0.084 0.5,-0.071C0.499,-0.057 0.496,-0.045 0.49,-0.035C0.485,-0.024 0.478,-0.016 0.468,-0.01C0.458,-0.003 0.445,-0 0.428,-0C0.41,-0 0.397,-0.003 0.387,-0.01C0.377,-0.016 0.37,-0.024 0.365,-0.035C0.36,-0.045 0.357,-0.057 0.355,-0.071C0.354,-0.084 0.354,-0.098 0.354,-0.112L0.354,-0.274L0.22,-0.274L0.22,-0.112C0.22,-0.098 0.219,-0.084 0.218,-0.071C0.216,-0.057 0.213,-0.045 0.208,-0.035C0.203,-0.024 0.196,-0.016 0.186,-0.01C0.176,-0.003 0.162,-0 0.146,-0C0.128,-0 0.115,-0.003 0.105,-0.01C0.095,-0.016 0.088,-0.024 0.083,-0.035C0.078,-0.045 0.075,-0.057 0.073,-0.071C0.072,-0.084 0.071,-0.098 0.071,-0.112L0.071,-0.571Z" style="fill:rgb(143,47,42);fill-rule:nonzero;"/>
                    </g>
                </g>
                <g transform="matrix(0.835756,-0.549101,0.549101,0.835756,-113.445,378.262)">
                    <g transform="matrix(375,0,0,375,575.582,378.767)">
                        <path d="M0.319,-0.11C0.319,-0.097 0.319,-0.083 0.317,-0.07C0.316,-0.057 0.313,-0.045 0.308,-0.035C0.303,-0.024 0.296,-0.016 0.286,-0.01C0.276,-0.003 0.263,-0 0.246,-0C0.229,-0 0.215,-0.003 0.206,-0.01C0.196,-0.016 0.188,-0.024 0.183,-0.035C0.178,-0.045 0.175,-0.057 0.174,-0.07C0.173,-0.083 0.172,-0.097 0.172,-0.11L0.172,-0.28L0.026,-0.54C0.019,-0.554 0.011,-0.567 0.004,-0.58C-0.003,-0.594 -0.007,-0.607 -0.007,-0.62C-0.007,-0.629 -0.004,-0.638 0.001,-0.647C0.006,-0.656 0.015,-0.664 0.028,-0.672C0.043,-0.68 0.057,-0.684 0.069,-0.684C0.079,-0.684 0.088,-0.681 0.096,-0.677C0.104,-0.673 0.111,-0.667 0.118,-0.66C0.124,-0.653 0.13,-0.644 0.135,-0.635C0.14,-0.627 0.145,-0.618 0.149,-0.608L0.238,-0.422L0.254,-0.422L0.343,-0.608C0.347,-0.618 0.352,-0.627 0.357,-0.635C0.362,-0.644 0.368,-0.653 0.375,-0.66C0.381,-0.667 0.388,-0.673 0.396,-0.677C0.404,-0.681 0.413,-0.684 0.423,-0.684C0.43,-0.684 0.436,-0.683 0.443,-0.681C0.449,-0.679 0.456,-0.676 0.464,-0.672C0.477,-0.664 0.486,-0.656 0.491,-0.647C0.496,-0.638 0.499,-0.629 0.499,-0.62C0.499,-0.614 0.496,-0.605 0.491,-0.592C0.486,-0.578 0.478,-0.561 0.466,-0.54L0.319,-0.28L0.319,-0.11Z" style="fill:rgb(143,47,42);fill-rule:nonzero;"/>
                    </g>
                </g>
                <g transform="matrix(0.935631,-0.352979,0.352979,0.935631,-46.9462,279.507)">
                    <g transform="matrix(375,0,0,375,742.894,268.473)">
                        <path d="M0.218,-0.27L0.218,-0.111C0.218,-0.097 0.217,-0.084 0.217,-0.07C0.216,-0.057 0.213,-0.045 0.208,-0.035C0.204,-0.024 0.196,-0.016 0.186,-0.01C0.176,-0.003 0.161,-0 0.143,-0C0.124,-0 0.11,-0.003 0.1,-0.01C0.09,-0.016 0.083,-0.024 0.079,-0.035C0.074,-0.045 0.071,-0.057 0.071,-0.07C0.07,-0.084 0.069,-0.097 0.069,-0.111L0.069,-0.572C0.069,-0.586 0.07,-0.6 0.071,-0.613C0.071,-0.627 0.074,-0.639 0.079,-0.649C0.083,-0.659 0.09,-0.668 0.1,-0.674C0.11,-0.68 0.124,-0.684 0.143,-0.684L0.304,-0.684C0.344,-0.682 0.38,-0.673 0.412,-0.658C0.426,-0.652 0.439,-0.644 0.452,-0.634C0.465,-0.624 0.476,-0.612 0.487,-0.598C0.497,-0.584 0.505,-0.567 0.511,-0.548C0.517,-0.528 0.521,-0.506 0.521,-0.48C0.521,-0.446 0.515,-0.415 0.504,-0.389C0.493,-0.363 0.477,-0.341 0.457,-0.323C0.436,-0.305 0.411,-0.292 0.381,-0.283C0.351,-0.274 0.318,-0.27 0.28,-0.27L0.218,-0.27ZM0.284,-0.386C0.3,-0.387 0.315,-0.391 0.328,-0.397C0.334,-0.4 0.339,-0.404 0.344,-0.409C0.349,-0.413 0.354,-0.419 0.358,-0.426C0.363,-0.432 0.366,-0.44 0.368,-0.449C0.371,-0.458 0.372,-0.469 0.372,-0.48C0.372,-0.492 0.371,-0.501 0.368,-0.51C0.366,-0.518 0.363,-0.525 0.359,-0.531C0.355,-0.537 0.351,-0.542 0.346,-0.546C0.341,-0.551 0.336,-0.554 0.331,-0.557C0.318,-0.563 0.304,-0.567 0.289,-0.568L0.218,-0.568L0.218,-0.386L0.284,-0.386Z" style="fill:rgb(143,47,42);fill-rule:nonzero;"/>
                    </g>
                </g>
                <g transform="matrix(0.987623,-0.156848,0.156848,0.987623,-18.6398,150.517)">
                    <g transform="matrix(375,0,0,375,944.375,193.363)">
                        <path d="M0.333,-0.684C0.346,-0.684 0.359,-0.683 0.373,-0.682C0.386,-0.681 0.398,-0.678 0.409,-0.674C0.419,-0.669 0.428,-0.662 0.435,-0.653C0.442,-0.644 0.445,-0.631 0.445,-0.614C0.445,-0.598 0.442,-0.585 0.435,-0.575C0.428,-0.566 0.419,-0.559 0.409,-0.555C0.398,-0.55 0.386,-0.547 0.373,-0.546C0.359,-0.545 0.346,-0.545 0.333,-0.545L0.217,-0.545L0.217,-0.412L0.278,-0.412C0.291,-0.412 0.304,-0.412 0.318,-0.411C0.331,-0.41 0.343,-0.407 0.353,-0.403C0.363,-0.399 0.371,-0.392 0.378,-0.383C0.384,-0.374 0.388,-0.362 0.388,-0.346C0.388,-0.329 0.384,-0.317 0.378,-0.308C0.371,-0.299 0.363,-0.293 0.353,-0.288C0.343,-0.284 0.331,-0.281 0.318,-0.281C0.304,-0.28 0.291,-0.279 0.278,-0.279L0.217,-0.279L0.217,-0.139L0.333,-0.139C0.346,-0.139 0.359,-0.138 0.373,-0.137C0.386,-0.136 0.398,-0.134 0.409,-0.129C0.419,-0.125 0.428,-0.118 0.435,-0.109C0.442,-0.099 0.445,-0.087 0.445,-0.07C0.445,-0.053 0.442,-0.04 0.435,-0.031C0.428,-0.021 0.419,-0.014 0.408,-0.01C0.397,-0.005 0.385,-0.002 0.372,-0.001C0.359,-0 0.346,-0 0.333,-0L0.142,-0C0.123,-0 0.109,-0.003 0.099,-0.01C0.089,-0.016 0.082,-0.025 0.078,-0.035C0.073,-0.046 0.07,-0.058 0.07,-0.071C0.069,-0.085 0.068,-0.098 0.068,-0.112L0.068,-0.571C0.068,-0.585 0.069,-0.599 0.07,-0.612C0.07,-0.626 0.073,-0.638 0.078,-0.648C0.082,-0.659 0.089,-0.667 0.099,-0.674C0.109,-0.68 0.123,-0.684 0.142,-0.684L0.333,-0.684Z" style="fill:rgb(143,47,42);fill-rule:nonzero;"/>
                    </g>
                </g>
                <g transform="matrix(0.998602,0.0528643,-0.0528643,0.998602,10.1318,-60.0012)">
                    <g transform="matrix(375,0,0,375,1139.28,161.522)">
                        <path d="M0.069,-0.572C0.069,-0.586 0.07,-0.6 0.071,-0.613C0.071,-0.627 0.074,-0.639 0.079,-0.649C0.083,-0.659 0.09,-0.668 0.1,-0.674C0.11,-0.68 0.124,-0.684 0.143,-0.684L0.304,-0.684C0.344,-0.682 0.38,-0.673 0.411,-0.658C0.424,-0.652 0.438,-0.644 0.45,-0.634C0.463,-0.624 0.475,-0.613 0.485,-0.598C0.495,-0.584 0.503,-0.568 0.509,-0.548C0.515,-0.529 0.519,-0.507 0.519,-0.481C0.519,-0.476 0.518,-0.469 0.517,-0.461C0.516,-0.452 0.514,-0.443 0.511,-0.432C0.507,-0.422 0.503,-0.411 0.498,-0.4C0.492,-0.389 0.485,-0.379 0.476,-0.369C0.466,-0.359 0.455,-0.349 0.442,-0.341C0.429,-0.332 0.413,-0.326 0.396,-0.32C0.407,-0.316 0.418,-0.31 0.43,-0.302C0.442,-0.295 0.452,-0.286 0.462,-0.274C0.471,-0.263 0.479,-0.249 0.485,-0.233C0.491,-0.217 0.494,-0.199 0.494,-0.178L0.494,-0.108C0.494,-0.104 0.495,-0.101 0.497,-0.099C0.499,-0.096 0.501,-0.094 0.503,-0.092C0.511,-0.084 0.515,-0.077 0.517,-0.072C0.518,-0.066 0.519,-0.061 0.519,-0.058C0.519,-0.046 0.516,-0.037 0.512,-0.029C0.507,-0.021 0.501,-0.015 0.494,-0.01C0.487,-0.005 0.478,-0.001 0.469,0.001C0.46,0.003 0.45,0.004 0.44,0.004C0.43,0.004 0.419,0.002 0.408,-0.001C0.397,-0.005 0.387,-0.01 0.377,-0.016C0.368,-0.023 0.361,-0.031 0.355,-0.041C0.35,-0.05 0.347,-0.062 0.347,-0.074L0.347,-0.178C0.347,-0.192 0.346,-0.205 0.344,-0.217C0.342,-0.229 0.338,-0.24 0.333,-0.249C0.327,-0.257 0.319,-0.264 0.31,-0.269C0.3,-0.274 0.287,-0.276 0.271,-0.276L0.217,-0.276L0.217,-0.113C0.217,-0.099 0.216,-0.085 0.216,-0.071C0.215,-0.058 0.212,-0.045 0.208,-0.035C0.203,-0.024 0.196,-0.016 0.186,-0.01C0.175,-0.003 0.161,-0 0.143,-0C0.124,-0 0.11,-0.003 0.1,-0.01C0.09,-0.016 0.083,-0.024 0.079,-0.035C0.074,-0.045 0.071,-0.058 0.071,-0.071C0.07,-0.085 0.069,-0.099 0.069,-0.113L0.069,-0.572ZM0.283,-0.386C0.299,-0.386 0.314,-0.39 0.327,-0.397C0.333,-0.4 0.338,-0.404 0.343,-0.409C0.348,-0.413 0.353,-0.419 0.357,-0.426C0.362,-0.433 0.365,-0.441 0.367,-0.45C0.37,-0.459 0.371,-0.469 0.371,-0.481C0.371,-0.492 0.37,-0.502 0.367,-0.51C0.365,-0.518 0.362,-0.526 0.358,-0.532C0.354,-0.538 0.35,-0.543 0.344,-0.547C0.339,-0.552 0.334,-0.555 0.329,-0.558C0.317,-0.564 0.303,-0.567 0.287,-0.568L0.217,-0.568L0.217,-0.386L0.283,-0.386Z" style="fill:rgb(143,47,42);fill-rule:nonzero;"/>
                    </g>
                </g>
                <g transform="matrix(0.960888,0.276938,-0.276938,0.960888,101.559,-371.168)">
                    <g transform="matrix(375,0,0,375,1364.83,173.966)">
                        <path d="M0.218,-0.27L0.218,-0.111C0.218,-0.097 0.217,-0.084 0.217,-0.07C0.216,-0.057 0.213,-0.045 0.208,-0.035C0.204,-0.024 0.196,-0.016 0.186,-0.01C0.176,-0.003 0.161,-0 0.143,-0C0.124,-0 0.11,-0.003 0.1,-0.01C0.09,-0.016 0.083,-0.024 0.079,-0.035C0.074,-0.045 0.071,-0.057 0.071,-0.07C0.07,-0.084 0.069,-0.097 0.069,-0.111L0.069,-0.572C0.069,-0.586 0.07,-0.6 0.071,-0.613C0.071,-0.627 0.074,-0.639 0.079,-0.649C0.083,-0.659 0.09,-0.668 0.1,-0.674C0.11,-0.68 0.124,-0.684 0.143,-0.684L0.304,-0.684C0.344,-0.682 0.38,-0.673 0.412,-0.658C0.426,-0.652 0.439,-0.644 0.452,-0.634C0.465,-0.624 0.476,-0.612 0.487,-0.598C0.497,-0.584 0.505,-0.567 0.511,-0.548C0.517,-0.528 0.521,-0.506 0.521,-0.48C0.521,-0.446 0.515,-0.415 0.504,-0.389C0.493,-0.363 0.477,-0.341 0.457,-0.323C0.436,-0.305 0.411,-0.292 0.381,-0.283C0.351,-0.274 0.318,-0.27 0.28,-0.27L0.218,-0.27ZM0.284,-0.386C0.3,-0.387 0.315,-0.391 0.328,-0.397C0.334,-0.4 0.339,-0.404 0.344,-0.409C0.349,-0.413 0.354,-0.419 0.358,-0.426C0.363,-0.432 0.366,-0.44 0.368,-0.449C0.371,-0.458 0.372,-0.469 0.372,-0.48C0.372,-0.492 0.371,-0.501 0.368,-0.51C0.366,-0.518 0.363,-0.525 0.359,-0.531C0.355,-0.537 0.351,-0.542 0.346,-0.546C0.341,-0.551 0.336,-0.554 0.331,-0.557C0.318,-0.563 0.304,-0.567 0.289,-0.568L0.218,-0.568L0.218,-0.386L0.284,-0.386Z" style="fill:rgb(143,47,42);fill-rule:nonzero;"/>
                    </g>
                </g>
                <g transform="matrix(0.881885,0.471465,-0.471465,0.881885,295.773,-713.293)">
                    <g transform="matrix(375,0,0,375,1571.46,233.653)">
                        <path d="M0.051,-0.49C0.051,-0.521 0.055,-0.548 0.064,-0.57C0.074,-0.592 0.085,-0.61 0.099,-0.625C0.114,-0.64 0.129,-0.651 0.146,-0.659C0.163,-0.668 0.18,-0.674 0.196,-0.678C0.212,-0.682 0.227,-0.685 0.24,-0.686C0.253,-0.687 0.262,-0.688 0.269,-0.688L0.285,-0.688C0.291,-0.688 0.301,-0.687 0.314,-0.686C0.327,-0.685 0.341,-0.682 0.357,-0.678C0.373,-0.674 0.39,-0.668 0.407,-0.659C0.424,-0.651 0.44,-0.64 0.453,-0.625C0.467,-0.61 0.479,-0.592 0.488,-0.57C0.497,-0.548 0.501,-0.521 0.501,-0.49L0.501,-0.198C0.501,-0.166 0.497,-0.139 0.488,-0.116C0.479,-0.094 0.467,-0.075 0.453,-0.06C0.44,-0.045 0.424,-0.033 0.407,-0.025C0.39,-0.016 0.373,-0.01 0.357,-0.005C0.341,-0.001 0.327,0.001 0.314,0.002C0.301,0.003 0.291,0.004 0.285,0.004L0.269,0.004C0.262,0.004 0.253,0.003 0.24,0.002C0.227,0.001 0.212,-0.001 0.196,-0.005C0.18,-0.01 0.163,-0.016 0.146,-0.025C0.129,-0.033 0.114,-0.045 0.099,-0.06C0.085,-0.075 0.074,-0.094 0.064,-0.116C0.055,-0.139 0.051,-0.166 0.051,-0.198L0.051,-0.49ZM0.213,-0.18C0.214,-0.168 0.216,-0.157 0.221,-0.148C0.225,-0.14 0.232,-0.132 0.24,-0.126C0.249,-0.119 0.261,-0.116 0.277,-0.116C0.293,-0.116 0.305,-0.119 0.313,-0.126C0.322,-0.132 0.328,-0.14 0.333,-0.148C0.337,-0.157 0.34,-0.168 0.341,-0.18L0.341,-0.498C0.34,-0.51 0.337,-0.52 0.333,-0.53C0.328,-0.538 0.322,-0.545 0.313,-0.552C0.305,-0.558 0.293,-0.562 0.277,-0.562C0.261,-0.562 0.249,-0.558 0.24,-0.552C0.232,-0.545 0.225,-0.538 0.221,-0.53C0.216,-0.52 0.214,-0.51 0.213,-0.498L0.213,-0.18Z" style="fill:rgb(143,47,42);fill-rule:nonzero;"/>
                    </g>
                </g>
                <g transform="matrix(0.726611,0.687049,-0.687049,0.726611,715.589,-1124.76)">
                    <g transform="matrix(375,0,0,375,1771.11,336.785)">
                        <path d="M0.383,-0.158C0.373,-0.158 0.365,-0.16 0.359,-0.164C0.352,-0.167 0.346,-0.172 0.341,-0.177C0.336,-0.183 0.332,-0.189 0.329,-0.196C0.325,-0.203 0.323,-0.209 0.32,-0.216L0.228,-0.483L0.215,-0.483L0.215,-0.076C0.215,-0.066 0.214,-0.056 0.213,-0.047C0.212,-0.038 0.209,-0.03 0.204,-0.023C0.2,-0.016 0.193,-0.01 0.185,-0.006C0.176,-0.002 0.164,-0 0.149,-0C0.132,-0 0.119,-0.002 0.109,-0.006C0.1,-0.01 0.092,-0.016 0.087,-0.023C0.083,-0.03 0.079,-0.038 0.078,-0.047C0.077,-0.056 0.076,-0.066 0.076,-0.076L0.076,-0.572C0.076,-0.586 0.077,-0.6 0.077,-0.613C0.078,-0.627 0.081,-0.639 0.085,-0.649C0.09,-0.659 0.097,-0.668 0.107,-0.674C0.117,-0.68 0.131,-0.684 0.149,-0.684L0.216,-0.684C0.227,-0.684 0.236,-0.683 0.244,-0.682C0.252,-0.682 0.259,-0.679 0.265,-0.674C0.272,-0.669 0.278,-0.662 0.284,-0.651C0.291,-0.641 0.298,-0.626 0.305,-0.607C0.313,-0.588 0.322,-0.564 0.332,-0.534C0.342,-0.505 0.354,-0.469 0.369,-0.426L0.382,-0.387L0.394,-0.387L0.409,-0.436C0.423,-0.477 0.434,-0.511 0.443,-0.54C0.453,-0.568 0.461,-0.591 0.468,-0.61C0.475,-0.628 0.482,-0.642 0.488,-0.652C0.493,-0.662 0.499,-0.669 0.506,-0.674C0.512,-0.679 0.519,-0.682 0.526,-0.682C0.534,-0.683 0.543,-0.684 0.554,-0.684L0.625,-0.684C0.643,-0.684 0.657,-0.68 0.667,-0.674C0.677,-0.668 0.684,-0.659 0.689,-0.649C0.694,-0.639 0.696,-0.627 0.697,-0.613C0.698,-0.6 0.698,-0.586 0.698,-0.572L0.698,-0.076C0.698,-0.066 0.698,-0.056 0.696,-0.047C0.695,-0.038 0.692,-0.03 0.687,-0.023C0.682,-0.016 0.675,-0.01 0.665,-0.006C0.655,-0.002 0.642,-0 0.625,-0C0.61,-0 0.598,-0.002 0.59,-0.006C0.581,-0.01 0.574,-0.016 0.57,-0.023C0.566,-0.03 0.563,-0.038 0.562,-0.047C0.56,-0.056 0.56,-0.066 0.56,-0.076L0.56,-0.483L0.546,-0.483L0.454,-0.216C0.451,-0.209 0.449,-0.203 0.445,-0.196C0.442,-0.189 0.438,-0.183 0.433,-0.177C0.428,-0.172 0.423,-0.167 0.416,-0.164C0.41,-0.16 0.402,-0.158 0.393,-0.158L0.383,-0.158Z" style="fill:rgb(143,47,42);fill-rule:nonzero;"/>
                    </g>
                </g>
            </g>
        </g>
    </g>
    <g transform="matrix(0.91877,0,0,0.91877,194.337,-0.824863)">
        <g id="scarf" transform="matrix(1.11358,0,0,1.11358,-222.4,-242.741)">
            <g transform="matrix(1,0,0,1,229.462,540.923)">
                <path d="M581.774,1706.94C430.357,1509.61 497.405,1636.52 497.405,1466.01C497.405,1043.65 805.198,590.38 1294.56,590.38C1783.92,590.38 1932.07,1178.71 2072.76,1512.45C2201.85,1818.67 1941.46,2146.78 1565.18,2249.51C1551.52,2253.2 1536.92,2250.29 1525.71,2241.66C1313.52,2077.91 876.826,2091.46 581.774,1706.94Z" style="fill:rgb(143,47,42);"/>
            </g>
            <g transform="matrix(0.807221,0,0,0.807221,313.665,1069.03)">
                <path d="M481.837,1252.72L333.507,1278.74C248.646,1299.96 192.674,1390.36 174.768,1471.31C166.059,1510.68 135.789,1638.34 220.651,1587.42C251.997,1568.62 295.358,1536.78 318.492,1509.79C345.431,1478.36 350.298,1439.38 375.144,1406.25C412.267,1356.76 447.504,1304.22 481.837,1252.72Z" style="fill:rgb(85,24,24);"/>
            </g>
            <g transform="matrix(0.711268,-0.381712,0.381712,0.711268,-88.0608,1349.1)">
                <path d="M380.348,1257.92C360.139,1278.13 336.017,1286.55 307.485,1286.55C215.232,1286.55 156.332,1221.29 135.734,1133.02C120.456,1067.54 131.885,1004.61 146.143,940.446C151.379,916.888 172.122,831.417 198.189,820.742C234.164,806.008 343.267,1016.36 347.56,1036.11C371.774,1147.49 333.56,1184.32 432.394,1239.71" style="fill:rgb(143,47,42);"/>
            </g>
            <g transform="matrix(0.208885,0.191825,-0.0924767,0.100701,445.313,1453.5)">
                <path d="M1589.98,2597.61C1585.33,2594.99 1582.4,2585.48 1583.21,2575.62C1584.02,2565.77 1588.3,2558.8 1593.11,2559.53C1745.64,2570.32 2044.68,2518.53 2214.5,2138.14C2217.7,2130.98 2170.31,2093.21 2109.46,2372.32C2032.69,2724.44 1741.19,2668.08 1589.98,2597.61Z" style="fill:rgb(85,24,24);"/>
            </g>
            <g transform="matrix(0.282198,-0.0281754,0.0135831,0.136045,93.0774,1805.64)">
                <path d="M1595.68,2591.46C1592.04,2589.07 1589.86,2581.34 1590.65,2573.58C1591.44,2565.83 1594.94,2560.59 1598.74,2561.46C1739.71,2576.08 2038.75,2531.81 2214.5,2138.14C2217.7,2130.98 2170.31,2093.21 2109.46,2372.32C2030.08,2736.42 1735.65,2663.11 1595.68,2591.46Z" style="fill:rgb(85,24,24);"/>
            </g>
            <g transform="matrix(-0.188366,-0.982099,0.982099,-0.188366,-1302.56,3150.56)">
                <path d="M649.224,2103.41C700.928,2103.41 745.304,2067.14 745.304,2159.32C745.304,2251.51 700.129,2201.64 648.424,2201.64C596.72,2201.64 557.94,2251.51 557.94,2159.32C557.94,2067.14 597.519,2103.41 649.224,2103.41Z" style="fill:rgb(71,39,55);"/>
            </g>
            <g transform="matrix(1.00671,0,-5.55112e-17,0.740726,32.9136,712.188)">
                <path d="M1674.55,2582.77C1673.48,2582.22 1672.89,2580.66 1673.19,2579.16C1673.48,2577.66 1674.56,2576.71 1675.69,2576.95C1752.24,2578.28 2116.47,2550.08 2170.99,2097.23C2229.78,1608.93 2252.9,2351.07 2033.28,2506.84C1843.97,2641.1 1714.26,2600.99 1674.55,2582.77Z" style="fill:rgb(85,24,24);"/>
            </g>
            <g transform="matrix(0.476118,-0.103401,0.0561085,0.258355,1047.05,2100.22)">
                <path d="M1692.57,2706.53C1689.68,2706.93 1687.13,2703.06 1686.8,2697.76C1686.46,2692.45 1688.45,2687.6 1691.32,2686.76C1781.57,2633.57 2027.96,2461.34 2198.89,2145.91C2204.11,2136.28 2189.65,2271.38 1998.04,2483.26C1838.52,2659.66 1740.51,2699.63 1692.57,2706.53Z" style="fill:rgb(85,24,24);"/>
            </g>
            <g transform="matrix(0.300398,0.599816,-0.401156,0.200906,1627.91,813.635)">
                <path d="M1656.8,2705.01C1664.15,2695.17 1975.34,2576.78 2214.5,2138.14C2258.88,2056.75 2196.14,2290.84 2004.54,2502.72C1763.96,2768.75 1656.8,2705.01 1656.8,2705.01Z" style="fill:rgb(85,24,24);"/>
            </g>
        </g>
        <g id="pom" transform="matrix(1,0,0,1,222.469,549.918)">
            <g id="ear" transform="matrix(0.996677,0.081456,-0.081456,0.996677,807.684,-8.66765)">
                <g transform="matrix(0.994807,-0.101782,0.101782,0.994807,-85.2724,181.687)">
                    <path d="M488.978,1250.77C381.966,1250.77 369.581,1045.62 416.551,873.394C470.359,676.1 550.537,518.316 694.822,374.031C819.806,249.047 1037.31,63.121 1167.5,229.178C1252.37,337.424 1274.86,445.157 1269.26,545.909C1263.66,646.662 1266.34,814.624 1148.47,812.403L488.978,1250.77Z" style="fill:rgb(255,153,0);"/>
                </g>
                <g transform="matrix(1.01885,-0.178876,0.190464,1.08485,-103.084,137.298)">
                    <path d="M1043.74,354.185C876.484,318.476 739.067,767.841 830.164,803.049C921.262,838.256 1026.39,862.208 1110.05,740.036C1191.51,621.08 1145.14,375.834 1043.74,354.185Z" style="fill:rgb(255,251,208);"/>
                </g>
                <g transform="matrix(-0.320048,-0.446433,-0.444167,0.318423,1690.54,808.578)">
                    <path d="M794.638,831.004C730.204,786.382 966.499,501.695 1099.59,590.851C1207.73,663.287 891.39,803.807 806.074,831.004C794.665,834.641 792.804,850.064 809.886,850.064" style="fill:rgb(255,153,0);"/>
                </g>
                <g transform="matrix(0.379275,-0.166005,0.354934,0.810926,517.389,306.338)">
                    <path d="M794.638,831.004C730.204,786.382 966.499,501.695 1099.59,590.851C1207.73,663.287 891.39,803.807 806.074,831.004C794.665,834.641 792.804,850.064 809.886,850.064" style="fill:rgb(255,153,0);"/>
                </g>
                <g transform="matrix(0.289674,-0.295798,0.632444,0.61935,287.437,414.627)">
                    <path d="M794.638,831.004C730.204,786.382 966.499,501.695 1099.59,590.851C1207.73,663.287 891.39,803.807 806.074,831.004C794.665,834.641 792.804,850.064 809.886,850.064" style="fill:rgb(255,153,0);"/>
                </g>
            </g>
            <g transform="matrix(0.952514,0,0,0.952514,-161.362,-404.36)">
                <path d="M1529.34,887.645C1960.31,876.318 2258.93,1165.09 2391.27,1618.34C2589.95,2298.86 2040.89,2272.87 1547.2,2390.12C970.45,2527.09 323.782,1942.38 688.427,1394.72C922.505,1043.16 1074.9,899.588 1529.34,887.645Z" style="fill:rgb(255,153,0);"/>
            </g>
            <g id="ear1" serif:id="ear" transform="matrix(0.991723,-0.128393,0.128393,0.991723,-150.204,106.995)">
                <g transform="matrix(0.994807,-0.101782,0.101782,0.994807,-85.2724,181.687)">
                    <path d="M488.978,1250.77C381.966,1250.77 369.581,1045.62 416.551,873.394C470.359,676.1 550.537,518.316 694.822,374.031C819.806,249.047 1037.31,63.121 1167.5,229.178C1252.37,337.424 1274.86,445.157 1269.26,545.909C1263.66,646.662 1185.96,718.666 1148.47,812.403L488.978,1250.77Z" style="fill:rgb(255,153,0);"/>
                </g>
                <g transform="matrix(0.992717,-0.120469,0.120469,0.992717,-46.7832,116.24)">
                    <path d="M1043.74,354.185C876.484,318.476 507.989,730.947 763.051,829.524C854.148,864.732 964.956,671.528 1118.59,688.282C1187.52,695.8 1145.14,375.834 1043.74,354.185Z" style="fill:rgb(255,251,208);"/>
                </g>
                <g transform="matrix(0.545135,-0.435311,0.498215,0.623908,-4.06795,700.706)">
                    <path d="M794.638,831.004C747.669,798.477 860.499,638.385 976.668,588.525C1019.86,569.985 1063.52,566.686 1099.59,590.851C1207.73,663.287 891.39,803.807 806.074,831.004C794.665,834.641 792.804,850.064 809.886,850.064" style="fill:rgb(191,66,0);"/>
                </g>
                <g transform="matrix(1.03405,-1.82321,1.11718,0.633615,-820.938,1894.53)">
                    <path d="M754.109,884.371C755.136,887.793 733.606,867.796 738.861,831.004C747.017,773.912 766.228,722.903 792.229,670.902C815.388,624.583 856.406,628.077 856.791,637.131C859.22,694.256 762.112,787.319 754.109,823.38C751.967,833.034 734.248,842.44 750.297,842.44" style="fill:rgb(255,153,0);"/>
                </g>
                <g transform="matrix(1.16503,-0.30241,0.465119,1.79187,-505.134,-120.597)">
                    <path d="M794.638,831.004C764.231,783.874 1059.93,468.85 1099.59,590.851C1123.71,665.035 935.298,638.65 806.074,831.004C799.396,840.944 792.804,850.064 809.886,850.064" style="fill:rgb(255,153,0);"/>
                </g>
            </g>
            <g id="face" transform="matrix(1,0,0,1,6.0991,-24.3964)">
                <g id="Layer1" transform="matrix(1,0,0,1,7.62388,95.2985)">
                    <g transform="matrix(1,0,0,1,-7.62388,-64.8031)">
                        <ellipse cx="1471.92" cy="1554.2" rx="323.455" ry="192.831" style="fill:rgb(255,251,208);"/>
                    </g>
                    <g transform="matrix(1.01375,0,0,1.50283,8.23285,-820.481)">
                        <path d="M1166.3,1521.44C1143.14,1500.24 785.96,1446.45 800.584,1592.56C813.802,1724.62 861.216,1836.42 1427.82,1836.42C1748.08,1836.42 1932.69,1688.75 1932.69,1592.56C1932.69,1563.46 1921.88,1544.19 1904.35,1531.72C1848.28,1491.85 1723.43,1521.44 1663.04,1521.44L1166.3,1521.44Z" style="fill:rgb(255,251,208);"/>
                    </g>
                    <g>
                        <g transform="matrix(0.391103,0.920347,-0.966664,0.410786,2179.95,-42.6732)">
                            <path d="M959.572,1533.93C930.206,1504.97 885.959,1517.1 843.496,1559.08C813.669,1588.57 785.422,1636.37 771.325,1687.67C765.592,1708.53 764.099,1730.18 763.673,1750.77C764.899,1757.55 764.718,1764.73 767.671,1772.01C773.386,1786.09 778.516,1799.4 789.577,1812.13C806.549,1831.67 820.173,1845.35 839.751,1853.08C843.05,1856.61 848.741,1856.93 852.451,1853.79C856.161,1850.65 856.493,1845.23 853.194,1841.7C848.735,1826.74 854.059,1812.74 855.926,1793.28C857.342,1778.52 862.569,1766.39 866.947,1755.21C868.065,1741.03 871.867,1726.66 874.723,1712.03C879.21,1689.05 882.796,1665.9 890.252,1645.27C895.727,1630.12 901.043,1616.17 907.997,1604.68C911.286,1599.25 913.814,1594.01 917.373,1589.91C920.532,1586.26 923.74,1577.25 925.48,1580.45C926.13,1581.64 924.833,1578.07 924.911,1576.81C924.969,1575.87 926.198,1574.56 927.234,1574.97C939.129,1583.47 956.031,1581.17 964.955,1569.85C973.878,1558.52 971.466,1542.43 959.572,1533.93Z" style="fill:rgb(255,251,208);"/>
                        </g>
                        <g transform="matrix(0.695547,0.821761,-0.814522,0.68942,1648.18,-480.423)">
                            <path d="M931.328,1719.74C939.082,1720.89 946.549,1721.92 949.867,1719.79C961.437,1712.39 973.241,1705.13 969.294,1688.28C969.294,1674.34 958.08,1663.03 944.268,1663.03C939.239,1663.03 934.554,1664.53 930.641,1667.12C927.612,1665.56 923.551,1662.4 920.558,1661.52C912.594,1659.15 904.787,1659.34 898.506,1659.57C877.237,1660.38 866.724,1674.02 862.12,1696.69C849.098,1769.71 857.3,1828.29 881.791,1880.61C887.14,1892.03 893.506,1903.11 901.278,1913.31C908.673,1923.02 916.414,1932.72 926.38,1940.45C941.055,1951.84 955.4,1959.96 973.692,1967.68C991.364,1975.15 1005.34,1979.01 1025.13,1984.84C1028.61,1987.89 1033.89,1987.51 1036.91,1984C1039.94,1980.48 1039.56,1975.15 1036.08,1972.11C1024.26,1947.12 1019.09,1928.02 1008.6,1905.37C1002.31,1891.78 997.746,1879.36 990.664,1867.17C984.195,1856.03 976.603,1846.03 970.224,1835.34C960.83,1819.59 951.528,1804.08 945.459,1785.97C938.733,1765.9 933.416,1744.36 931.328,1719.74ZM924.304,1718.76C914.948,1717.59 906.946,1717.66 907.612,1724.72C908.529,1734.44 917.88,1728.15 924.304,1718.76ZM932.017,1667.77C933.432,1668.3 934.443,1668.18 934.716,1666.82C935.046,1665.17 933.667,1666.32 932.017,1667.77ZM924.604,1672.7L923.519,1674.16L922.692,1675.54C923.183,1674.43 923.814,1673.49 924.604,1672.7Z" style="fill:rgb(255,251,208);"/>
                        </g>
                        <g transform="matrix(0.736571,0.67636,-0.67636,0.736571,1333.28,-468.679)">
                            <path d="M997.311,1822.17C1005.03,1811.65 1004.12,1796.78 994.611,1787.27C984.097,1776.75 967.023,1776.75 956.509,1787.27C944.886,1794.04 944.128,1806.08 942.163,1818.06C940.144,1830.38 947.794,1845.18 950.722,1855.33C975.517,1922.52 1020.67,1966.9 1076.96,1997.28C1093,2005.93 1110.08,2013.72 1128.27,2017.92C1140.09,2020.64 1151.72,2022.15 1164.02,2021.89C1180.29,2021.56 1193.18,2019.63 1209.27,2016.28C1226.41,2012.71 1237.38,2008.88 1254.23,2004.19C1259.09,2005.23 1263.88,2002.13 1264.91,1997.28C1265.95,1992.42 1262.86,1987.64 1258,1986.6C1246.08,1976.55 1238.98,1969.19 1226.57,1959.71C1210.32,1947.29 1198.33,1935.8 1180.6,1926.15C1165.87,1918.14 1150.24,1912.68 1135.05,1906.63C1113.26,1897.95 1091.35,1891.51 1071.93,1879.18C1049.87,1865.18 1028.9,1849.1 1012.6,1824.4C1010.27,1821.11 999.029,1815.52 1003.48,1812.81C1004.24,1812.35 1001.49,1813.83 1001.75,1814.61C1002.78,1817.78 999.936,1819.68 997.311,1822.17Z" style="fill:rgb(255,251,208);"/>
                        </g>
                    </g>
                    <g>
                        <g transform="matrix(0.295928,-1.01257,0.605963,0.177096,411.121,3186.41)">
                            <path d="M1903.56,1572.22C1931.99,1580.65 1952.54,1590.69 1966.73,1603.49C1970.37,1606.77 1978.35,1608.1 1976.12,1611.68C1975.07,1613.36 1978.71,1611.25 1979.98,1610.7C1982.55,1609.59 1984.09,1617.15 1984.22,1622.1C1984.79,1642.75 1986.68,1661.46 1983.61,1687.8C1981.59,1705.15 1980.84,1717.99 1978.12,1736.95C1976.49,1740.21 1976.75,1745.07 1978.7,1747.79C1980.65,1750.52 1983.56,1750.08 1985.19,1746.82C1999.23,1736.41 2008.23,1728.59 2019.72,1716.65C2028.76,1707.26 2034.07,1697.47 2040.92,1686.71C2050.72,1671.31 2054.85,1654.63 2059.57,1637.17C2069.16,1601.73 2063.12,1565.62 2052.99,1530.29C2044.65,1501.22 2026.78,1474.88 1999.53,1451.28C1980.76,1435.02 1955.36,1421.94 1922.9,1410.19C1896.14,1401.27 1870.08,1430.33 1864.75,1475.04C1859.41,1519.76 1876.8,1563.3 1903.56,1572.22Z" style="fill:rgb(255,251,208);"/>
                        </g>
                        <g transform="matrix(0.44645,-0.894808,0.877291,0.43771,-442.214,2417.65)">
                            <path d="M1912.11,1669.37C1914.04,1671.03 1906.12,1670.62 1906.38,1673.2C1907.43,1683.51 1905,1694.94 1904.73,1703.49C1904.51,1717.45 1898.14,1728.34 1891.57,1738.95C1880.75,1756.45 1861.44,1767.08 1842.56,1780.78C1828.88,1790.7 1813.72,1799.71 1800.63,1811.64C1784.59,1826.25 1774.57,1841.53 1761.93,1858.59C1751.6,1872.51 1746.49,1882.34 1738.06,1896.23C1733.76,1898.77 1732.29,1904.38 1734.77,1908.77C1737.26,1913.15 1742.77,1914.65 1747.06,1912.11C1761.9,1911.66 1771.88,1912.75 1787.66,1911.69C1808.37,1910.3 1825.48,1908.69 1846.18,1903.34C1852.59,1901.68 1858.44,1899.14 1864.35,1896.2C1878.57,1889.15 1891.63,1880 1903.47,1870.18C1959.34,1823.86 1994.08,1765.4 1979.8,1695.68C1976.19,1680.95 1974.93,1658.7 1964.68,1644.38C1956.75,1633.29 1949.41,1622.75 1935.83,1620.02C1922.48,1613.34 1906.32,1618.98 1899.78,1632.6C1893.23,1646.22 1898.76,1662.69 1912.11,1669.37Z" style="fill:rgb(255,251,208);"/>
                        </g>
                        <g transform="matrix(0.940459,-0.339906,0.339906,0.940459,-446.433,566.813)">
                            <path d="M1911.92,1668.79C1913.71,1670.24 1906.64,1670.37 1906.92,1672.71C1908.16,1683.03 1906.08,1694.63 1905.95,1703.22C1905.92,1719.66 1896.73,1734.57 1886.4,1750.4C1871.02,1773.94 1846.46,1794.09 1822.12,1816.28C1805.93,1831.04 1788.68,1845.24 1773.48,1860.84C1766.7,1867.79 1761.78,1875.15 1756.18,1882.73C1746.4,1895.95 1739.93,1907.07 1731.71,1919.69C1720.16,1937.4 1713.83,1949.74 1704.32,1964.02C1701.99,1965.4 1701.21,1968.4 1702.58,1970.73C1703.96,1973.06 1706.97,1973.84 1709.3,1972.46C1725.96,1971.15 1739.3,1970.71 1759.35,1966.89C1783.09,1962.36 1804.92,1956.87 1829.65,1945.41C1841.64,1939.86 1852.41,1931.9 1863.08,1923.68C1873.74,1915.48 1883.53,1906.09 1892.72,1896.37C1952.26,1833.38 1990.75,1759.02 1978.58,1695.95C1975.2,1681.45 1973.87,1659.72 1964.18,1645.33C1956.7,1634.2 1949.23,1623.9 1936.02,1620.6C1922.72,1613.94 1906.52,1619.34 1899.87,1632.64C1893.22,1645.94 1898.62,1662.14 1911.92,1668.79Z" style="fill:rgb(255,251,208);"/>
                        </g>
                    </g>
                </g>
                <g id="mouth" transform="matrix(1.13061,0,0,1,-186.622,0)">
                    <g id="Layer2" transform="matrix(0.884481,0,0,1,167.717,-1)">
                        <path d="M1381.92,1738.81C1386.07,1738.64 1389.83,1738.51 1393.7,1738.54C1393.95,1738.54 1394.19,1738.47 1394.41,1738.56C1396.78,1739.47 1395.54,1740.62 1397.84,1741.59C1398.33,1741.79 1398.83,1741.71 1399.35,1741.72C1403.1,1741.74 1406.62,1741.47 1410.11,1741.3C1414.39,1741.09 1418.44,1740.93 1422.35,1740.78C1440.26,1740.09 1454.45,1741.92 1466.72,1748.2C1487.4,1758.77 1502.32,1780.25 1519.94,1813.04C1522.86,1818.25 1525.98,1823.33 1529.58,1828.07C1533,1832.58 1536.59,1836.92 1540.47,1841.02C1544.27,1845.04 1548.11,1848.67 1552.09,1852.45C1552.5,1852.84 1552.85,1853.24 1553.35,1853.51C1556.69,1855.3 1558.31,1853.98 1561.61,1855.84C1563.45,1856.89 1564.73,1858.26 1566.08,1859.89C1566.6,1860.53 1566.96,1861.28 1567.4,1861.99C1567.42,1862.02 1567.46,1862.04 1567.5,1862.02C1567.54,1862 1567.55,1861.96 1567.53,1861.92C1567.24,1861.17 1566.85,1860.47 1566.62,1859.71C1566.04,1857.73 1565.51,1856 1565.45,1853.94C1565.33,1849.8 1567.16,1848.61 1566.6,1844.5C1566.37,1842.8 1565.33,1841.41 1564.62,1839.85C1562.94,1836.17 1561.18,1832.68 1559.18,1829.14C1557.29,1825.8 1555.27,1822.56 1553.17,1819.33C1549.27,1813.33 1545.13,1807.47 1541.8,1801.08C1520.61,1763 1501.7,1738.91 1477.21,1727.09C1461.42,1719.46 1443.19,1716.02 1420.55,1718.87C1416.21,1719.41 1411.73,1720.2 1407.09,1721.39C1403.45,1722.32 1399.73,1723.24 1396,1724.81C1395.5,1725.03 1394.96,1725.13 1394.58,1725.53C1392.81,1727.34 1394.34,1727.88 1392.53,1729.7C1392.35,1729.87 1392.1,1729.9 1391.87,1730.01C1388.29,1731.66 1384.78,1733.19 1380.97,1735.03C1379.92,1735.29 1379.29,1736.35 1379.55,1737.39C1379.81,1738.44 1380.87,1739.08 1381.92,1738.81Z" style="fill:rgb(104,35,0);"/>
                        <path d="M1455.79,1728.58C1456.16,1728.09 1456.76,1727.42 1457.58,1727.53C1458.99,1727.72 1458.46,1728.39 1459.66,1729.61C1461.88,1731.85 1459.95,1731.63 1462.44,1734.6C1462.64,1734.83 1462.57,1735 1462.84,1735.13C1463.96,1735.68 1465.34,1735.8 1466.81,1736.1C1473.66,1737.46 1482.59,1739.86 1492.02,1742.68C1500.69,1745.28 1509.7,1748.26 1517.95,1750.75C1521.1,1751.7 1524.1,1752.62 1527.01,1753.16C1527.86,1753.31 1528.61,1753.34 1529.43,1753.36C1535.33,1753.47 1539.05,1752.49 1542.94,1752.77C1545.4,1752.94 1547.03,1753.29 1548.19,1753.63C1549,1754.17 1550.09,1753.95 1550.63,1753.14C1551.17,1752.34 1550.95,1751.24 1550.14,1750.7C1549.24,1749.56 1547.6,1748.36 1545.54,1746.12C1543.41,1743.8 1542.09,1741.47 1539,1738.44C1537.41,1736.89 1535.84,1735.54 1533.73,1734.22C1529.78,1731.74 1524.98,1729.92 1520.03,1727.98C1509.17,1723.72 1496.98,1720.19 1486.24,1717.82C1481.48,1716.77 1476.98,1715.93 1472.92,1715.63C1469.21,1715.35 1465.67,1714.48 1463.09,1715.69C1462.14,1716.14 1461.98,1716.23 1461.41,1717.02C1459.44,1719.77 1460.25,1718.37 1458.93,1721.01C1458.52,1721.84 1458.4,1721.6 1457.97,1722.35C1457.15,1723.77 1457.25,1723.94 1456.28,1724.91C1455.31,1725.86 1454.08,1726.1 1453.47,1726.96C1453.03,1727.6 1453.18,1728.48 1453.82,1728.93C1454.46,1729.38 1455.34,1729.22 1455.79,1728.58Z" style="fill:rgb(104,35,0);"/>
                    </g>
                    <path d="M1450.55,1711.24C1521.02,1686.35 1589.4,1664.11 1615.16,1695.97C1658.69,1745.18 1655.05,1805.17 1630.17,1844.32C1620.59,1859.4 1604.54,1877.03 1585.23,1877.57C1564.68,1878.13 1547.62,1858.48 1537.3,1843.08C1513.38,1807.42 1496.44,1723.83 1450.55,1711.24Z" style="fill:rgb(255,101,114);"/>
                    <g transform="matrix(0.683604,-0.446226,-0.349086,-0.683604,1122.76,3568.94)">
                        <path d="M1689.06,1653.79C1693.82,1657.43 1696.66,1662.62 1699.06,1668.31C1702.56,1676.58 1704.11,1685.81 1705.53,1694.46C1705.53,1699.44 1701.95,1703.49 1697.54,1703.49C1693.13,1703.49 1689.55,1699.44 1689.55,1694.46C1690.8,1686.89 1692.59,1678.75 1691.65,1670.8C1691.06,1665.73 1689.57,1661.03 1686.51,1657.06C1685.71,1656.26 1685.64,1654.88 1686.34,1653.98C1687.05,1653.08 1688.26,1653 1689.06,1653.79Z" style="fill:rgb(104,35,0);"/>
                    </g>
                    <g transform="matrix(1,0,0,1,-5.30689,14.3682)">
                        <path d="M1219.47,1612.6C1210.68,1617.81 1202.53,1622.81 1195.7,1629.3C1188.06,1636.56 1181.54,1643.96 1176.42,1652.85C1170.25,1663.56 1166.16,1674.3 1162.8,1686.78C1160.82,1694.14 1158.84,1701.35 1157.61,1709.39C1156.86,1711.81 1157.99,1714.46 1160.12,1715.31C1162.26,1716.15 1164.6,1714.88 1165.35,1712.47C1168.54,1705.93 1171.83,1700.1 1175.8,1694.69C1179.85,1689.15 1184.49,1685.24 1189.35,1680.87C1194.8,1675.97 1200.79,1672.89 1207.11,1669C1215.47,1663.86 1224.57,1659.74 1235.14,1656.44C1245.84,1651.56 1251.02,1637.76 1246.69,1625.66C1242.37,1613.56 1230.17,1607.71 1219.47,1612.6Z" style="fill:rgb(104,35,0);"/>
                    </g>
                    <path d="M1614.93,1696.22C1618.8,1701.42 1622,1706.75 1625.14,1711.92C1625.96,1713.26 1626.83,1714.53 1627.62,1715.84C1637.94,1732.77 1643.45,1750.35 1645.19,1767.47C1648.02,1795.17 1640.86,1821.7 1627.6,1842.23C1622.86,1849.6 1616.51,1857.61 1608.95,1863.74C1601.95,1869.42 1593.92,1873.49 1585.15,1873.69C1577.74,1873.88 1570.85,1871.15 1564.62,1866.99C1554.51,1860.23 1546.13,1849.68 1540.11,1840.67C1523.65,1816.17 1510.47,1769.01 1488.92,1737.85C1483.33,1729.76 1477.28,1722.53 1470.3,1717.32C1468.44,1715.94 1466.51,1714.73 1464.52,1713.67C1463.23,1712.98 1461.95,1712.25 1460.58,1711.83C1457.29,1710.83 1454.12,1710.73 1450.65,1710.77C1450.41,1710.7 1450.18,1710.86 1450.12,1711.13C1450.06,1711.39 1450.21,1711.66 1450.44,1711.72C1453.34,1713.44 1455.6,1715.58 1458.27,1717.59C1459.33,1718.39 1460.46,1719.05 1461.54,1719.82C1463.2,1721.01 1464.8,1722.31 1466.41,1723.64C1472.62,1728.8 1478.35,1735.17 1483.49,1742.64C1504.96,1773.84 1518.07,1820.98 1534.48,1845.49C1541.01,1855.2 1550.15,1866.51 1561.08,1873.76C1568.44,1878.64 1576.6,1881.71 1585.32,1881.45C1593.48,1881.18 1601.1,1878.13 1607.96,1873.48C1618.21,1866.52 1626.73,1855.98 1632.75,1846.41C1646.51,1824.37 1653.88,1796.06 1650.31,1766.74C1648.14,1748.9 1641.92,1730.7 1630.7,1713.38C1629.84,1712.05 1628.99,1710.7 1628.03,1709.42C1624.38,1704.56 1620.06,1700.16 1615.38,1695.72C1615.26,1695.58 1615.06,1695.58 1614.93,1695.72C1614.81,1695.86 1614.81,1696.08 1614.93,1696.22Z" style="fill:rgb(255,101,114);"/>
                    <g transform="matrix(0.884481,0,0,1,165.064,0)">
                        <path d="M1439.38,1733.92L1442.43,1733.92C1442.46,1733.92 1442.48,1733.9 1442.48,1733.87C1442.48,1733.85 1442.46,1733.82 1442.43,1733.82L1439.38,1733.82C1439.36,1733.82 1439.34,1733.85 1439.34,1733.87C1439.34,1733.9 1439.36,1733.92 1439.38,1733.92Z" style="fill:rgb(125,38,8);"/>
                    </g>
                    <path d="M1545.53,1695.74C1560.47,1714.35 1571.3,1732.91 1578.58,1750.86C1582.97,1761.66 1586.01,1772.22 1587.98,1782.44C1590.21,1794.08 1591.11,1805.22 1590.4,1815.88C1590.35,1816.31 1590.62,1816.7 1591,1816.76C1591.38,1816.81 1591.73,1816.51 1591.78,1816.08C1593.58,1805.26 1594.03,1793.7 1592.68,1781.53C1591.47,1770.69 1588.79,1759.44 1584.79,1747.88C1578.16,1728.71 1567.6,1708.8 1552.88,1688.56C1551.13,1686.26 1548.06,1686.01 1546.03,1687.99C1544,1689.98 1543.77,1693.45 1545.53,1695.74Z" style="fill:rgb(255,55,72);"/>
                    <g transform="matrix(-6.1662,0.210126,0.222718,6.53571,1981.79,-13747)">
                        <path d="M132.05,2353.88C132.5,2354.72 132.713,2355.12 132.956,2355.51C133.197,2355.9 133.466,2356.26 134.016,2357.04C135.751,2359.49 137.123,2360.39 138.463,2360.4C140.036,2360.41 141.48,2359.18 143.17,2357.92C145.661,2356.08 148.525,2354.16 152.241,2354.32C154.206,2354.41 156.618,2354.83 159.189,2355.4C164.581,2356.6 170.688,2358.49 174.64,2359.48C176.836,2360.01 179.451,2360.32 182.253,2360.33C185.932,2360.35 189.899,2359.8 193.661,2358.8C196.759,2357.97 199.676,2356.75 202.141,2355.16C204.565,2353.6 206.488,2351.61 207.438,2349.05C208.172,2347.25 210.146,2346.43 211.844,2347.23C213.542,2348.03 214.325,2350.14 213.592,2351.95C211.08,2357.56 205.612,2361.42 198.918,2363.29C193.274,2364.86 186.873,2365.09 181.282,2364.51C178.522,2364.23 175.96,2363.78 173.792,2363.12C170.418,2362.12 165.469,2360.36 160.739,2359C157.562,2358.09 154.491,2357.37 152.108,2357.18C149.018,2356.93 146.635,2358.59 144.509,2360.04C142.326,2361.54 140.346,2362.88 138.373,2362.68C136.634,2362.5 134.807,2361.24 132.984,2357.75L131.387,2354.22C131.297,2354.02 131.373,2353.79 131.556,2353.69C131.739,2353.6 131.96,2353.68 132.05,2353.88Z" style="fill:rgb(104,35,0);"/>
                    </g>
                </g>
                <g id="eyes" transform="matrix(1,0,0,1,7.62388,95.2985)">
                    <g id="eye" transform="matrix(-1,1.11022e-16,1.11022e-16,1,2803.8,317.002)">
                        <g transform="matrix(1.03377,-0.414147,0.414147,1.03377,-1361.46,293.693)">
                            <path d="M1815.55,1153.32C1725.46,1117.23 1581.6,1171.06 1567.04,1309.6C1554.96,1424.65 1625.34,1504.26 1731.53,1501.41C1868.08,1497.75 1917.57,1392.84 1925.65,1318.07C1932.14,1258.06 1885.36,1181.29 1815.55,1153.32Z" style="fill:rgb(255,251,208);"/>
                        </g>
                        <g transform="matrix(1,0,0,1,407.421,650.319)">
                            <path d="M466.887,180.61C352.597,304.771 473.103,478.707 617.13,456.968C729.104,440.067 783.79,316.524 701.093,239.161C625.464,168.412 552.534,87.565 466.887,180.61Z" style="fill:rgb(120,30,0);stroke:black;stroke-width:1.09px;"/>
                        </g>
                        <g transform="matrix(1.40489,0,0,1.40489,-269.509,-279.511)">
                            <circle cx="949.094" cy="874.501" r="39.542" style="fill:rgb(253,251,249);"/>
                        </g>
                        <g transform="matrix(-0.761611,-0.648034,-0.648034,0.761611,3116.35,1023.79)">
                            <path d="M1582.5,1026.31C1532.78,1048.59 1490.7,1170.89 1575,1128.97C1606.74,1113.19 1515.86,1154.69 1701.46,1076.54C1818.31,1027.33 1655.32,993.674 1582.5,1026.31Z" style="fill:rgb(191,66,0);"/>
                        </g>
                    </g>
                    <g id="eye1" serif:id="eye" transform="matrix(1,1.11022e-16,-1.11022e-16,1,132.53,317.002)">
                        <g transform="matrix(-1.03377,-0.414147,-0.414147,1.03377,3340.48,293.693)">
                            <path d="M1815.55,1153.32C1725.46,1117.23 1581.6,1171.06 1567.04,1309.6C1554.96,1424.65 1625.34,1504.26 1731.53,1501.41C1868.08,1497.75 1917.57,1392.84 1925.65,1318.07C1932.14,1258.06 1885.36,1181.29 1815.55,1153.32Z" style="fill:rgb(255,251,208);"/>
                        </g>
                        <g transform="matrix(1,0,0,1,407.421,650.319)">
                            <path d="M466.887,180.61C352.597,304.771 473.103,478.707 617.13,456.968C729.104,440.067 783.79,316.524 701.093,239.161C625.464,168.412 552.534,87.565 466.887,180.61Z" style="fill:rgb(120,30,0);stroke:black;stroke-width:1.09px;"/>
                        </g>
                        <g transform="matrix(1.40489,0,0,1.40489,-269.509,-279.511)">
                            <circle cx="949.094" cy="874.501" r="39.542" style="fill:rgb(253,251,249);"/>
                        </g>
                        <g transform="matrix(-0.761611,-0.648034,-0.648034,0.761611,3106.55,1023.79)">
                            <path d="M1582.5,1026.31C1532.78,1048.59 1490.7,1170.89 1575,1128.97C1606.74,1113.19 1515.86,1154.69 1701.46,1076.54C1818.31,1027.33 1655.32,993.674 1582.5,1026.31Z" style="fill:rgb(191,66,0);"/>
                        </g>
                    </g>
                </g>
                <g transform="matrix(1,0,0,1,118.876,65.1421)">
                    <path d="M1316.86,1408.93C1363.45,1362.34 1511.28,1362.34 1557.87,1408.93C1588.32,1439.38 1581.52,1492.9 1529.01,1545.42C1501.96,1572.47 1407.1,1569.75 1373.48,1551.52C1311.87,1518.11 1283.98,1441.81 1316.86,1408.93Z" style="fill:rgb(120,30,0);"/>
                </g>
                <g transform="matrix(0.513695,0.353812,-0.353812,0.513695,959.184,298.835)">
                    <path d="M875.533,1420.44C877.743,1415.27 880.052,1410.35 883.218,1406.17C885.407,1403.28 884.294,1399.16 886.49,1396.47C894.062,1387.19 888.308,1374.89 900.06,1369.87C907.56,1366.67 912.59,1363.85 922.051,1363.5C925.685,1365.32 930.111,1363.84 931.928,1360.21C933.746,1356.57 932.27,1352.15 928.636,1350.33C923.315,1343.24 917.95,1340.6 912.391,1335.01C900.807,1323.35 894.157,1322.92 880.872,1315.98C877.301,1314.11 874.909,1315.08 871.089,1313.9C863.376,1311.53 857.746,1313.98 849.686,1314.52C833.381,1315.59 820.253,1325.98 806.678,1336.65C795.239,1345.64 787.559,1359.2 779.983,1372.67C766.799,1399.04 777.503,1431.15 803.871,1444.33C830.238,1457.52 862.349,1446.81 875.533,1420.44Z" style="fill:rgb(143,47,42);"/>
                </g>
                <g transform="matrix(-0.513695,0.353812,0.353812,0.513695,1998.1,309.779)">
                    <path d="M779.983,1372.67C783.835,1365.42 787.806,1358.31 792.75,1352.08C798.085,1345.35 803.657,1339.06 810.004,1333.73C818.23,1328.44 824.975,1321.85 834.01,1319.12C838.484,1317.77 841.925,1315.37 846.542,1315.17C858.308,1314.66 866.595,1310.52 877.476,1315.08C892.79,1321.49 900.113,1322.45 912.981,1335.5C918.327,1340.92 923.495,1343.52 928.636,1350.33C932.27,1352.15 933.746,1356.57 931.928,1360.21C930.111,1363.84 925.685,1365.32 922.051,1363.5C916.125,1363.42 912.222,1364.31 907.066,1365.71C902.919,1366.84 901.941,1369.25 898.448,1371.33C893.968,1374 895.302,1377.64 891.589,1380.98C889.216,1383.12 890.867,1385.96 888.674,1388.22C887.346,1389.58 888.616,1391.65 887.316,1393.04C886.088,1394.34 887.374,1396.55 886.144,1397.87C883.958,1400.23 884.659,1403.99 882.897,1406.84L875.533,1420.44C862.349,1446.81 830.238,1457.52 803.871,1444.33C777.503,1431.15 766.799,1399.04 779.983,1372.67Z" style="fill:rgb(143,47,42);"/>
                </g>
            </g>
        </g>
        <g transform="matrix(1.70896,0.0574667,-0.147297,1.70581,-287.717,-1028.17)">
            <path d="M749,1419C690.819,1432.35 617.118,1537.06 640.852,1702.53C641.195,1704.87 643.018,1706.8 645.347,1707.28C647.677,1707.76 649.967,1706.68 650.995,1704.62C688.485,1629.46 891.661,1500.33 995.862,1551.69" style="fill:rgb(255,153,0);"/>
        </g>
        <g transform="matrix(1.29491,-0.442935,0.515346,1.75176,-1042.5,-568.711)">
            <path d="M749,1419C692.32,1432.01 620.727,1528.61 638.995,1686.28C639.318,1689.04 642.092,1691.36 645.725,1691.91C649.358,1692.46 652.92,1691.11 654.367,1688.62C685.073,1635.85 784.445,1596.99 879.794,1643.99" style="fill:rgb(255,153,0);"/>
        </g>
        <g transform="matrix(1.00161,-0.769349,0.982628,1.21824,-1471.38,721.018)">
            <path d="M749,1419C694.134,1431.59 632.113,1526.22 645.704,1675.79C646.042,1679.6 649.623,1682.65 654.315,1683.11C659.008,1683.58 663.548,1681.34 665.232,1677.73C693.768,1616.77 769.582,1555.7 859.271,1599.91" style="fill:rgb(255,153,0);"/>
        </g>
    </g>
</svg>
